<svg xmlns="http://www.w3.org/2000/svg" width="75" height="24.587" viewBox="0 0 75 24.587">
  <g fill="#00F">
    <path d="M5.282.291H0v20.07l4.225 4.226h7.395l-1.057-5.282H5.282v-5.282h5.281v5.282l1.057 5.282 4.225-4.226v-7.394L11.62 8.742H5.282M25.352 20.361l4.226 4.226h7.394l-1.057-5.282h-5.281v-5.282h5.281v5.282l1.057 5.282 4.225-4.226v-7.394l-4.225-4.225h-7.394l-4.226 4.225M43.311 20.361l4.224 4.226h8.451v-5.282h-7.394v-5.282h7.394V8.742h-8.451l-4.224 4.225M17.958.291h5.282v24.296h-5.282zM63.381.291h-5.283v24.296h5.283v-4.226l4.225 4.226H75l-7.741-7.742 6.861-8.103h-7.043l-3.696 4.15"/>
  </g>
</svg>
